<svg width="64" height="64" viewBox="0 0 64 64" fill="none" xmlns="http://www.w3.org/2000/svg">
  <defs>
    <linearGradient id="brainGradient" x1="0%" y1="0%" x2="100%" y2="100%">
      <stop offset="0%" style="stop-color:#007AFF;stop-opacity:1" />
      <stop offset="50%" style="stop-color:#5AC8FA;stop-opacity:1" />
      <stop offset="100%" style="stop-color:#34C759;stop-opacity:1" />
    </linearGradient>
    <linearGradient id="heartGradient" x1="0%" y1="0%" x2="100%" y2="100%">
      <stop offset="0%" style="stop-color:#FF3B30;stop-opacity:1" />
      <stop offset="100%" style="stop-color:#FF9500;stop-opacity:1" />
    </linearGradient>
    <filter id="glow">
      <feGaussianBlur stdDeviation="2" result="coloredBlur"/>
      <feMerge> 
        <feMergeNode in="coloredBlur"/>
        <feMergeNode in="SourceGraphic"/>
      </feMerge>
    </filter>
  </defs>
  
  <!-- AI脳のシンボル -->
  <path d="M20 12C20 8.686 22.686 6 26 6h12c3.314 0 6 2.686 6 6v8c0 3.314-2.686 6-6 6h-2v4c0 1.105-.895 2-2 2s-2-.895-2-2v-4h-2c-3.314 0-6-2.686-6-6V12z" fill="url(#brainGradient)" filter="url(#glow)"/>
  
  <!-- 神経ネットワーク -->
  <circle cx="28" cy="16" r="2" fill="white" opacity="0.8"/>
  <circle cx="36" cy="16" r="2" fill="white" opacity="0.8"/>
  <circle cx="32" cy="20" r="1.5" fill="white" opacity="0.6"/>
  <line x1="28" y1="16" x2="32" y2="20" stroke="white" stroke-width="1" opacity="0.5"/>
  <line x1="36" y1="16" x2="32" y2="20" stroke="white" stroke-width="1" opacity="0.5"/>
  
  <!-- 人の心のシンボル -->
  <path d="M20 36c0-3.314 2.686-6 6-6 1.657 0 3.157.671 4.243 1.757L32 33.414l1.757-1.657A5.98 5.98 0 0 1 38 30c3.314 0 6 2.686 6 6 0 1.657-.671 3.157-1.757 4.243L32 50.586l-10.243-10.343A5.98 5.98 0 0 1 20 36z" fill="url(#heartGradient)" filter="url(#glow)"/>
  
  <!-- 接続線 -->
  <path d="M32 26 L32 30" stroke="#007AFF" stroke-width="2" stroke-dasharray="3,3" opacity="0.7"/>
  
  <!-- 周囲の装飾的な要素 -->
  <circle cx="12" cy="32" r="2" fill="#007AFF" opacity="0.3"/>
  <circle cx="52" cy="32" r="2" fill="#007AFF" opacity="0.3"/>
  <circle cx="32" cy="8" r="1.5" fill="#5AC8FA" opacity="0.4"/>
  <circle cx="32" cy="56" r="1.5" fill="#FF3B30" opacity="0.4"/>
  
  <!-- 接続線 -->
  <line x1="14" y1="32" x2="18" y2="32" stroke="#007AFF" stroke-width="1" opacity="0.3"/>
  <line x1="46" y1="32" x2="50" y2="32" stroke="#007AFF" stroke-width="1" opacity="0.3"/>
</svg>
