<svg width="64" height="64" viewBox="0 0 64 64" fill="none" xmlns="http://www.w3.org/2000/svg">
  <defs>
    <linearGradient id="futureGradient" x1="0%" y1="0%" x2="100%" y2="100%">
      <stop offset="0%" style="stop-color:#007AFF;stop-opacity:1" />
      <stop offset="25%" style="stop-color:#5AC8FA;stop-opacity:1" />
      <stop offset="50%" style="stop-color:#34C759;stop-opacity:1" />
      <stop offset="75%" style="stop-color:#FFCC00;stop-opacity:1" />
      <stop offset="100%" style="stop-color:#FF9500;stop-opacity:1" />
    </linearGradient>
    <radialGradient id="centerLight" cx="50%" cy="50%" r="50%">
      <stop offset="0%" style="stop-color:#FFFFFF;stop-opacity:1" />
      <stop offset="70%" style="stop-color:#5AC8FA;stop-opacity:0.3" />
      <stop offset="100%" style="stop-color:#007AFF;stop-opacity:0.1" />
    </radialGradient>
    <filter id="futureGlow">
      <feGaussianBlur stdDeviation="2" result="coloredBlur"/>
      <feMerge> 
        <feMergeNode in="coloredBlur"/>
        <feMergeNode in="SourceGraphic"/>
      </feMerge>
    </filter>
  </defs>
  
  <!-- 背景サークル -->
  <circle cx="32" cy="32" r="30" fill="url(#centerLight)" opacity="0.3"/>
  
  <!-- 地球・世界のシンボル -->
  <circle cx="32" cy="32" r="20" fill="none" stroke="url(#futureGradient)" stroke-width="2" filter="url(#futureGlow)"/>
  
  <!-- 大陸 -->
  <path d="M22 22 Q28 18 34 22 Q40 26 38 32 Q36 38 32 40 Q28 38 24 34 Q20 28 22 22 Z" fill="url(#futureGradient)" opacity="0.6"/>
  
  <!-- 人々のシンボル -->
  <circle cx="26" cy="26" r="2" fill="white" opacity="0.9"/>
  <circle cx="38" cy="26" r="2" fill="white" opacity="0.9"/>
  <circle cx="32" cy="38" r="2" fill="white" opacity="0.9"/>
  
  <!-- 人の体 -->
  <path d="M26 28 L26 34 M24 30 L28 30 M24 32 L28 32" stroke="white" stroke-width="1.5" opacity="0.8"/>
  <path d="M38 28 L38 34 M36 30 L40 30 M36 32 L40 32" stroke="white" stroke-width="1.5" opacity="0.8"/>
  <path d="M32 40 L32 46 M30 42 L34 42 M30 44 L34 44" stroke="white" stroke-width="1.5" opacity="0.8"/>
  
  <!-- AIネットワーク -->
  <line x1="26" y1="26" x2="38" y2="26" stroke="#007AFF" stroke-width="1" opacity="0.6" stroke-dasharray="2,1"/>
  <line x1="26" y1="26" x2="32" y2="38" stroke="#007AFF" stroke-width="1" opacity="0.6" stroke-dasharray="2,1"/>
  <line x1="38" y1="26" x2="32" y2="38" stroke="#007AFF" stroke-width="1" opacity="0.6" stroke-dasharray="2,1"/>
  
  <!-- 外側の技術要素 -->
  <circle cx="16" cy="16" r="2" fill="#007AFF" opacity="0.4"/>
  <circle cx="48" cy="16" r="2" fill="#007AFF" opacity="0.4"/>
  <circle cx="16" cy="48" r="2" fill="#5AC8FA" opacity="0.4"/>
  <circle cx="48" cy="48" r="2" fill="#5AC8FA" opacity="0.4"/>
  
  <!-- 接続線 -->
  <line x1="18" y1="18" x2="20" y2="20" stroke="#007AFF" stroke-width="1" opacity="0.3"/>
  <line x1="46" y1="18" x2="44" y2="20" stroke="#007AFF" stroke-width="1" opacity="0.3"/>
  <line x1="18" y1="46" x2="20" y2="44" stroke="#5AC8FA" stroke-width="1" opacity="0.3"/>
  <line x1="46" y1="46" x2="44" y2="44" stroke="#5AC8FA" stroke-width="1" opacity="0.3"/>
  
  <!-- 中央のイノベーション -->
  <circle cx="32" cy="32" r="4" fill="none" stroke="white" stroke-width="2" opacity="0.8"/>
  <circle cx="32" cy="32" r="1.5" fill="white" opacity="0.9"/>
  
  <!-- 光の放射 -->
  <line x1="32" y1="8" x2="32" y2="12" stroke="#FFCC00" stroke-width="2" opacity="0.6"/>
  <line x1="32" y1="52" x2="32" y2="56" stroke="#FFCC00" stroke-width="2" opacity="0.6"/>
  <line x1="8" y1="32" x2="12" y2="32" stroke="#FFCC00" stroke-width="2" opacity="0.6"/>
  <line x1="52" y1="32" x2="56" y2="32" stroke="#FFCC00" stroke-width="2" opacity="0.6"/>
  
  <!-- 斜めの光 -->
  <line x1="16" y1="16" x2="18" y2="18" stroke="#FF9500" stroke-width="1.5" opacity="0.5"/>
  <line x1="48" y1="16" x2="46" y2="18" stroke="#FF9500" stroke-width="1.5" opacity="0.5"/>
  <line x1="16" y1="48" x2="18" y2="46" stroke="#FF9500" stroke-width="1.5" opacity="0.5"/>
  <line x1="48" y1="48" x2="46" y2="46" stroke="#FF9500" stroke-width="1.5" opacity="0.5"/>
</svg>
