<svg width="64" height="64" viewBox="0 0 64 64" fill="none" xmlns="http://www.w3.org/2000/svg">
  <defs>
    <linearGradient id="innovationGradient" x1="0%" y1="0%" x2="100%" y2="100%">
      <stop offset="0%" style="stop-color:#007AFF;stop-opacity:1" />
      <stop offset="30%" style="stop-color:#5AC8FA;stop-opacity:1" />
      <stop offset="60%" style="stop-color:#34C759;stop-opacity:1" />
      <stop offset="100%" style="stop-color:#FFCC00;stop-opacity:1" />
    </linearGradient>
    <radialGradient id="centerGlow" cx="50%" cy="50%" r="50%">
      <stop offset="0%" style="stop-color:#FFFFFF;stop-opacity:1" />
      <stop offset="100%" style="stop-color:#007AFF;stop-opacity:0.3" />
    </radialGradient>
    <filter id="innovationGlow">
      <feGaussianBlur stdDeviation="2" result="coloredBlur"/>
      <feMerge> 
        <feMergeNode in="coloredBlur"/>
        <feMergeNode in="SourceGraphic"/>
      </feMerge>
    </filter>
  </defs>
  
  <!-- 背景円 -->
  <circle cx="32" cy="32" r="28" fill="url(#centerGlow)" opacity="0.2"/>
  
  <!-- 人のシルエット -->
  <path d="M32 12 C28 12 26 14 26 18 C26 22 28 24 32 24 C36 24 38 22 38 18 C38 14 36 12 32 12 Z" fill="url(#innovationGradient)" filter="url(#innovationGlow)"/>
  <path d="M22 26 C22 24 24 22 26 22 L38 22 C40 22 42 24 42 26 L42 38 C42 40 40 42 38 42 L36 42 L36 52 C36 54 34 56 32 56 C30 56 28 54 28 52 L28 42 L26 42 C24 42 22 40 22 38 L22 26 Z" fill="url(#innovationGradient)" filter="url(#innovationGlow)"/>
  
  <!-- AI要素 - 頭部周辺 -->
  <circle cx="28" cy="16" r="1.5" fill="white" opacity="0.8"/>
  <circle cx="36" cy="16" r="1.5" fill="white" opacity="0.8"/>
  <circle cx="32" cy="20" r="1" fill="white" opacity="0.6"/>
  <line x1="28" y1="16" x2="32" y2="20" stroke="white" stroke-width="1" opacity="0.5"/>
  <line x1="36" y1="16" x2="32" y2="20" stroke="white" stroke-width="1" opacity="0.5"/>
  
  <!-- 胸部のテクノロジー -->
  <rect x="30" y="28" width="4" height="1" fill="white" opacity="0.7"/>
  <rect x="29" y="30" width="6" height="1" fill="white" opacity="0.7"/>
  <rect x="31" y="32" width="2" height="1" fill="white" opacity="0.7"/>
  <circle cx="32" cy="28" r="0.5" fill="white" opacity="0.8"/>
  <circle cx="32" cy="30" r="0.5" fill="white" opacity="0.8"/>
  
  <!-- 周囲の接続要素 -->
  <circle cx="16" cy="20" r="2" fill="#007AFF" opacity="0.4"/>
  <circle cx="48" cy="20" r="2" fill="#007AFF" opacity="0.4"/>
  <circle cx="16" cy="44" r="2" fill="#5AC8FA" opacity="0.4"/>
  <circle cx="48" cy="44" r="2" fill="#5AC8FA" opacity="0.4"/>
  
  <!-- 接続線 -->
  <line x1="18" y1="20" x2="24" y2="24" stroke="#007AFF" stroke-width="1" opacity="0.3" stroke-dasharray="2,2"/>
  <line x1="46" y1="20" x2="40" y2="24" stroke="#007AFF" stroke-width="1" opacity="0.3" stroke-dasharray="2,2"/>
  <line x1="18" y1="44" x2="24" y2="40" stroke="#5AC8FA" stroke-width="1" opacity="0.3" stroke-dasharray="2,2"/>
  <line x1="46" y1="44" x2="40" y2="40" stroke="#5AC8FA" stroke-width="1" opacity="0.3" stroke-dasharray="2,2"/>
  
  <!-- 上部の光 -->
  <path d="M32 4 L30 8 L34 8 Z" fill="#FFCC00" opacity="0.6"/>
  <path d="M32 4 L28 10 L36 10 Z" fill="#FFCC00" opacity="0.3"/>
</svg>
