<svg width="64" height="64" viewBox="0 0 64 64" fill="none" xmlns="http://www.w3.org/2000/svg">
  <defs>
    <linearGradient id="handshakeGradient" x1="0%" y1="0%" x2="100%" y2="100%">
      <stop offset="0%" style="stop-color:#007AFF;stop-opacity:1" />
      <stop offset="50%" style="stop-color:#5AC8FA;stop-opacity:1" />
      <stop offset="100%" style="stop-color:#34C759;stop-opacity:1" />
    </linearGradient>
    <linearGradient id="connectionGradient" x1="0%" y1="0%" x2="100%" y2="100%">
      <stop offset="0%" style="stop-color:#FF9500;stop-opacity:1" />
      <stop offset="100%" style="stop-color:#FFCC00;stop-opacity:1" />
    </linearGradient>
    <filter id="connectionGlow">
      <feGaussianBlur stdDeviation="1.5" result="coloredBlur"/>
      <feMerge> 
        <feMergeNode in="coloredBlur"/>
        <feMergeNode in="SourceGraphic"/>
      </feMerge>
    </filter>
  </defs>
  
  <!-- 人間の手 -->
  <path d="M8 32 C8 28 10 26 14 26 L20 26 C22 26 24 28 24 30 L24 38 C24 40 22 42 20 42 L14 42 C10 42 8 40 8 36 L8 32 Z" fill="url(#connectionGradient)" filter="url(#connectionGlow)"/>
  
  <!-- AI/ロボットの手 -->
  <path d="M56 32 C56 28 54 26 50 26 L44 26 C42 26 40 28 40 30 L40 38 C40 40 42 42 44 42 L50 42 C54 42 56 40 56 36 L56 32 Z" fill="url(#handshakeGradient)" filter="url(#connectionGlow)"/>
  
  <!-- 接続部分 -->
  <ellipse cx="32" cy="32" rx="8" ry="6" fill="white" opacity="0.9"/>
  
  <!-- 人間の指 -->
  <rect x="20" y="28" width="8" height="2" fill="url(#connectionGradient)" opacity="0.8"/>
  <rect x="20" y="32" width="8" height="2" fill="url(#connectionGradient)" opacity="0.8"/>
  <rect x="20" y="36" width="8" height="2" fill="url(#connectionGradient)" opacity="0.8"/>
  
  <!-- AIの指 -->
  <rect x="36" y="28" width="8" height="2" fill="url(#handshakeGradient)" opacity="0.8"/>
  <rect x="36" y="32" width="8" height="2" fill="url(#handshakeGradient)" opacity="0.8"/>
  <rect x="36" y="36" width="8" height="2" fill="url(#handshakeGradient)" opacity="0.8"/>
  
  <!-- 中央の統合シンボル -->
  <circle cx="32" cy="32" r="3" fill="none" stroke="#007AFF" stroke-width="1.5" opacity="0.8"/>
  <circle cx="32" cy="32" r="1" fill="#007AFF" opacity="0.8"/>
  
  <!-- 人間側の装飾 -->
  <circle cx="16" cy="20" r="1" fill="#FF9500" opacity="0.6"/>
  <circle cx="12" cy="24" r="1" fill="#FF9500" opacity="0.6"/>
  <circle cx="16" cy="44" r="1" fill="#FF9500" opacity="0.6"/>
  <circle cx="12" cy="40" r="1" fill="#FF9500" opacity="0.6"/>
  
  <!-- AI側の装飾 -->
  <rect x="48" y="20" width="2" height="1" fill="#007AFF" opacity="0.6"/>
  <rect x="50" y="22" width="2" height="1" fill="#007AFF" opacity="0.6"/>
  <rect x="48" y="42" width="2" height="1" fill="#007AFF" opacity="0.6"/>
  <rect x="50" y="40" width="2" height="1" fill="#007AFF" opacity="0.6"/>
  
  <!-- 接続線 -->
  <line x1="24" y1="24" x2="28" y2="28" stroke="#FF9500" stroke-width="1" opacity="0.5"/>
  <line x1="40" y1="24" x2="36" y2="28" stroke="#007AFF" stroke-width="1" opacity="0.5"/>
  <line x1="24" y1="40" x2="28" y2="36" stroke="#FF9500" stroke-width="1" opacity="0.5"/>
  <line x1="40" y1="40" x2="36" y2="36" stroke="#007AFF" stroke-width="1" opacity="0.5"/>
  
  <!-- 上部のタイトル装飾 -->
  <path d="M32 8 L30 12 L34 12 Z" fill="#34C759" opacity="0.6"/>
  <path d="M32 52 L30 56 L34 56 Z" fill="#34C759" opacity="0.6"/>
</svg>
