<svg width="64" height="64" viewBox="0 0 64 64" fill="none" xmlns="http://www.w3.org/2000/svg">
  <defs>
    <linearGradient id="techGradient" x1="0%" y1="0%" x2="100%" y2="100%">
      <stop offset="0%" style="stop-color:#007AFF;stop-opacity:1" />
      <stop offset="100%" style="stop-color:#5AC8FA;stop-opacity:1" />
    </linearGradient>
    <linearGradient id="humanGradient" x1="0%" y1="0%" x2="100%" y2="100%">
      <stop offset="0%" style="stop-color:#FF9500;stop-opacity:1" />
      <stop offset="100%" style="stop-color:#FFCC00;stop-opacity:1" />
    </linearGradient>
    <filter id="softGlow">
      <feGaussianBlur stdDeviation="1.5" result="coloredBlur"/>
      <feMerge> 
        <feMergeNode in="coloredBlur"/>
        <feMergeNode in="SourceGraphic"/>
      </feMerge>
    </filter>
  </defs>
  
  <!-- 外側の円 -->
  <circle cx="32" cy="32" r="30" fill="none" stroke="url(#techGradient)" stroke-width="2" opacity="0.3"/>
  
  <!-- 左半分：テクノロジー -->
  <path d="M32 32 L32 8 A24 24 0 0 0 8 32 Z" fill="url(#techGradient)" filter="url(#softGlow)" opacity="0.8"/>
  
  <!-- 右半分：人間性 -->
  <path d="M32 32 L56 32 A24 24 0 0 1 32 56 Z" fill="url(#humanGradient)" filter="url(#softGlow)" opacity="0.8"/>
  
  <!-- 中央の調和シンボル -->
  <circle cx="32" cy="32" r="8" fill="white" opacity="0.9"/>
  
  <!-- AI回路パターン（左側） -->
  <rect x="16" y="20" width="8" height="1" fill="white" opacity="0.7"/>
  <rect x="16" y="24" width="6" height="1" fill="white" opacity="0.7"/>
  <rect x="16" y="28" width="10" height="1" fill="white" opacity="0.7"/>
  <circle cx="20" cy="20" r="1" fill="white" opacity="0.8"/>
  <circle cx="22" cy="24" r="1" fill="white" opacity="0.8"/>
  <circle cx="18" cy="28" r="1" fill="white" opacity="0.8"/>
  
  <!-- 人間的要素（右側） -->
  <path d="M44 20 Q48 24 44 28" stroke="white" stroke-width="2" fill="none" opacity="0.7"/>
  <path d="M46 22 Q50 26 46 30" stroke="white" stroke-width="1.5" fill="none" opacity="0.6"/>
  <circle cx="48" cy="24" r="1.5" fill="white" opacity="0.8"/>
  
  <!-- 中央の統合シンボル -->
  <path d="M28 28 L36 28 L36 36 L28 36 Z" fill="none" stroke="#007AFF" stroke-width="1.5" opacity="0.6"/>
  <circle cx="32" cy="32" r="2" fill="#007AFF" opacity="0.8"/>
  
  <!-- 接続線 -->
  <line x1="24" y1="24" x2="28" y2="28" stroke="#007AFF" stroke-width="1" opacity="0.5"/>
  <line x1="40" y1="24" x2="36" y2="28" stroke="#FF9500" stroke-width="1" opacity="0.5"/>
</svg>
